<?xml version="1.0" encoding="utf-8"?>
<!-- Generator: Adobe Illustrator 19.0.0, SVG Export Plug-In . SVG Version: 6.00 Build 0)  -->
<svg version="1.1" id="Layer_1" xmlns="http://www.w3.org/2000/svg" xmlns:xlink="http://www.w3.org/1999/xlink" x="0px" y="0px"
	 viewBox="0 0 400 207.4" style="enable-background:new 0 0 400 207.4;" xml:space="preserve">
<style type="text/css">
	.st0{fill:#FFFFFF;}
</style>
<g id="XMLID_231_">
	<path id="XMLID_232_" class="st0" d="M207.9,189.4c-4.3-3-6.3-9.3-6.6-10.9c-0.3-1.5-0.7-1.7-0.7-1.7s-0.3,0.2-0.7,1.7
		c-0.3,1.5-2.3,7.8-6.6,10.9c-1.9,1.1,0.3,1.6,0.3,1.6s0.9,0.2,1.9,0.2c1,0,0.8,1.1,0.8,1.1s-0.1,6.6,4.3,15.1
		c4.4-8.4,4.3-15.1,4.3-15.1s-0.1-1.1,0.8-1.1c1,0,1.9-0.2,1.9-0.2S209.7,190.5,207.9,189.4z"/>
	<path id="XMLID_467_" class="st0" d="M197.5,173.5c0,0-3.9,9-10.9,13.8s-9.5,1.6-9.5,1.6c-1,1.2,0.9,4.1,5.8,2.2
		c4.9-1.8,9.8-7.1,12.2-11.4C197.5,175.5,197.5,173.5,197.5,173.5z"/>
	<path id="XMLID_468_" class="st0" d="M214.8,187.3c-6.9-4.8-10.9-13.8-10.9-13.8s0,2,2.4,6.3c2.4,4.3,7.4,9.6,12.2,11.4
		c4.9,1.8,6.8-1,5.8-2.2C224.3,188.9,221.7,192,214.8,187.3z"/>
	<path id="XMLID_469_" class="st0" d="M139.2,148.4l-0.1-0.2l-0.1-0.1c-0.1,0-0.3,0.1-0.6,0.1c-0.3,0-0.7,0.1-1,0.1
		c-0.4,0-0.7,0-1.1,0c-0.3,0-0.6,0-0.7,0h-2.2c-0.2,0-0.4,0-0.7,0c-0.3,0-0.7,0-1.1,0c-0.4,0-0.7,0-1-0.1c-0.3,0-0.5-0.1-0.6-0.1
		l-0.1,0.1l-0.1,0.2l-0.1,2.4h0.8l0.1-0.1c0-0.2,0.1-0.3,0.2-0.5c0.1-0.1,0.2-0.2,0.3-0.3c0,0,0.1-0.1,0.2-0.1c0.1,0,0.2,0,0.4-0.1
		c0.2,0,0.4,0,0.7,0s0.7,0,1.1,0h0.2c0,0.2,0,0.6,0,1.1c0,0.5,0,1.1,0,1.7v3.2c0,0.4,0,0.6,0,0.9c0,0.2,0,0.4,0,0.6
		c0,0.2,0,0.3,0,0.4s0,0.2,0,0.3c0,0.3-0.1,0.6-0.2,0.7c-0.1,0.1-0.2,0.2-0.3,0.3c-0.1,0.1-0.3,0.1-0.5,0.1c-0.2,0-0.4,0-0.6,0
		l-0.1,0.1l-0.1,0.7l0,0c0.1,0,0.2,0,0.4,0s0.4,0,0.6,0c0.2,0,0.4,0,0.6,0c0.2,0,0.3,0,0.4,0h1.7c0.1,0,0.2,0,0.4,0
		c0.2,0,0.4,0,0.6,0c0.2,0,0.4,0,0.6,0c0.2,0,0.3,0,0.4,0l0,0l-0.1-0.7l-0.1-0.1c-0.1,0-0.2,0-0.3,0s-0.2,0-0.3,0
		c-0.1,0-0.2,0-0.3-0.1c-0.1,0-0.2-0.1-0.2-0.1c-0.1-0.1-0.2-0.2-0.3-0.3c-0.1-0.1-0.2-0.4-0.2-0.7c0-0.1,0-0.3,0-0.4
		c0-0.1,0-0.3,0-0.4s0-0.4,0-0.7c0-0.3,0-0.6,0-1v-2.9c0-0.7,0-1.2,0-1.7c0-0.5,0-0.8,0-1.1h0.2c0.4,0,0.8,0,1.1,0s0.5,0,0.7,0
		s0.3,0,0.4,0c0.1,0,0.1,0.1,0.2,0.1c0.1,0.1,0.2,0.2,0.3,0.3c0.1,0.1,0.1,0.3,0.2,0.5l0.1,0.1h0.8L139.2,148.4z"/>
	<path id="XMLID_472_" class="st0" d="M151.8,159.2c-0.2,0-0.3,0-0.5,0c-0.2,0-0.3-0.1-0.4-0.1c-0.1-0.1-0.3-0.2-0.4-0.4
		c-0.1-0.2-0.3-0.4-0.4-0.7c0-0.1-0.1-0.1-0.1-0.2c0-0.1-0.1-0.2-0.1-0.3c-0.1-0.1-0.1-0.3-0.2-0.5c-0.1-0.2-0.2-0.4-0.3-0.7l-3-8
		H146l-1.2,0.5l-1.5,3.9c-0.4,1.1-0.8,2.1-1.1,2.8c-0.3,0.7-0.5,1.2-0.6,1.6c-0.2,0.4-0.3,0.6-0.3,0.8c-0.1,0.1-0.1,0.3-0.2,0.3
		c-0.2,0.2-0.3,0.4-0.4,0.6s-0.3,0.3-0.4,0.3c-0.2,0.1-0.3,0.1-0.5,0.2c-0.2,0-0.3,0-0.5,0l-0.1,0.1l0,0.7l0,0.1c0.1,0,0.2,0,0.4,0
		c0.2,0,0.3,0,0.5,0s0.3,0,0.5,0c0.2,0,0.3,0,0.4,0h1c0.1,0,0.2,0,0.4,0c0.2,0,0.4,0,0.6,0c0.2,0,0.4,0,0.6,0s0.3,0,0.4,0l0,0
		l-0.1-0.7l-0.1-0.1c-0.3,0-0.5-0.1-0.6-0.2c-0.1-0.1-0.2-0.3-0.2-0.6c0-0.2,0.1-0.4,0.2-0.8c0.1-0.4,0.3-0.8,0.5-1.3l0.4-0.8h3.1
		l0.4,0.8c0.2,0.5,0.4,0.9,0.4,1.3c0.1,0.3,0.1,0.6,0.1,0.8c0,0.3-0.1,0.5-0.2,0.6c-0.2,0.1-0.4,0.1-0.7,0.1l-0.1,0.1l-0.1,0.7l0,0
		c0.1,0,0.2,0,0.4,0c0.2,0,0.4,0,0.6,0c0.2,0,0.4,0,0.6,0c0.2,0,0.3,0,0.4,0h1.3c0.1,0,0.2,0,0.4,0c0.2,0,0.3,0,0.5,0s0.3,0,0.5,0
		c0.2,0,0.3,0,0.4,0l0-0.1L151.8,159.2L151.8,159.2z M144.2,154.3l1.2-3.1l1.1,3.1H144.2z"/>
	<path id="XMLID_473_" class="st0" d="M160.7,148.3l-0.1-0.1c-0.1,0-0.3,0.1-0.6,0.1c-0.3,0-0.7,0.1-1,0.1c-0.4,0-0.7,0-1.1,0
		c-0.3,0-0.6,0-0.7,0h-2.2c-0.2,0-0.4,0-0.7,0c-0.3,0-0.7,0-1.1,0c-0.4,0-0.7,0-1-0.1c-0.3,0-0.5-0.1-0.6-0.1l-0.1,0.1l-0.1,0.2
		l-0.1,2.4h0.8l0.1-0.1c0-0.2,0.1-0.3,0.2-0.5c0.1-0.1,0.2-0.2,0.3-0.3c0,0,0.1-0.1,0.2-0.1c0.1,0,0.2,0,0.4-0.1c0.2,0,0.4,0,0.7,0
		s0.7,0,1.1,0h0.2c0,0.2,0,0.6,0,1.1c0,0.5,0,1.1,0,1.7v3.2c0,0.4,0,0.6,0,0.9c0,0.2,0,0.4,0,0.6c0,0.2,0,0.3,0,0.4s0,0.2,0,0.3
		c0,0.3-0.1,0.6-0.2,0.7c-0.1,0.1-0.2,0.2-0.3,0.3c-0.1,0.1-0.3,0.1-0.5,0.1c-0.2,0-0.4,0-0.6,0l-0.1,0.1l-0.1,0.7l0,0
		c0.1,0,0.2,0,0.4,0s0.4,0,0.6,0s0.4,0,0.6,0c0.2,0,0.3,0,0.4,0h1.7c0.1,0,0.2,0,0.4,0c0.2,0,0.4,0,0.6,0c0.2,0,0.4,0,0.6,0
		c0.2,0,0.3,0,0.4,0l0,0l-0.1-0.7l-0.1-0.1c-0.1,0-0.2,0-0.3,0s-0.2,0-0.3,0c-0.1,0-0.2,0-0.3-0.1c-0.1,0-0.2-0.1-0.2-0.1
		c-0.1-0.1-0.2-0.2-0.3-0.3c-0.1-0.1-0.2-0.4-0.2-0.7c0-0.1,0-0.3,0-0.4c0-0.1,0-0.3,0-0.4s0-0.4,0-0.7c0-0.3,0-0.6,0-1v-2.9
		c0-0.7,0-1.2,0-1.7c0-0.5,0-0.8,0-1.1h0.2c0.4,0,0.8,0,1.1,0s0.5,0,0.7,0s0.3,0,0.4,0c0.1,0,0.1,0.1,0.2,0.1
		c0.1,0.1,0.2,0.2,0.3,0.3c0.1,0.1,0.1,0.3,0.2,0.5l0.1,0.1h0.8l-0.1-2.4L160.7,148.3z"/>
	<path id="XMLID_474_" class="st0" d="M171.7,148.3l-0.1-0.1c-0.1,0-0.3,0.1-0.6,0.1c-0.3,0-0.7,0.1-1,0.1c-0.4,0-0.7,0-1.1,0
		c-0.3,0-0.6,0-0.7,0h-2.2c-0.2,0-0.4,0-0.7,0c-0.3,0-0.7,0-1.1,0c-0.4,0-0.7,0-1-0.1c-0.3,0-0.5-0.1-0.6-0.1l-0.1,0.1l-0.1,0.2
		l-0.1,2.4h0.8l0.1-0.1c0-0.2,0.1-0.3,0.2-0.5c0.1-0.1,0.2-0.2,0.3-0.3c0,0,0.1-0.1,0.2-0.1c0.1,0,0.2,0,0.4-0.1c0.2,0,0.4,0,0.7,0
		c0.3,0,0.7,0,1.1,0h0.2c0,0.2,0,0.6,0,1.1c0,0.5,0,1.1,0,1.7v3.2c0,0.4,0,0.6,0,0.9c0,0.2,0,0.4,0,0.6c0,0.2,0,0.3,0,0.4
		c0,0.1,0,0.2,0,0.3c0,0.3-0.1,0.6-0.2,0.7c-0.1,0.1-0.2,0.2-0.3,0.3c-0.1,0.1-0.3,0.1-0.5,0.1c-0.2,0-0.4,0-0.6,0l-0.1,0.1
		l-0.1,0.7l0,0c0.1,0,0.2,0,0.4,0c0.2,0,0.4,0,0.6,0s0.4,0,0.6,0s0.3,0,0.4,0h1.7c0.1,0,0.2,0,0.4,0s0.4,0,0.6,0c0.2,0,0.4,0,0.6,0
		s0.3,0,0.4,0l0,0l-0.1-0.7l-0.1-0.1c-0.1,0-0.2,0-0.3,0c-0.1,0-0.2,0-0.3,0c-0.1,0-0.2,0-0.3-0.1c-0.1,0-0.2-0.1-0.2-0.1
		c-0.1-0.1-0.2-0.2-0.3-0.3c-0.1-0.1-0.2-0.4-0.2-0.7c0-0.1,0-0.3,0-0.4c0-0.1,0-0.3,0-0.4c0-0.2,0-0.4,0-0.7c0-0.3,0-0.6,0-1v-2.9
		c0-0.7,0-1.2,0-1.7c0-0.5,0-0.8,0-1.1h0.2c0.4,0,0.8,0,1.1,0c0.3,0,0.5,0,0.7,0c0.2,0,0.3,0,0.4,0c0.1,0,0.2,0.1,0.2,0.1
		c0.1,0.1,0.2,0.2,0.3,0.3c0.1,0.1,0.1,0.3,0.2,0.5l0.1,0.1h0.8l-0.1-2.4L171.7,148.3z"/>
	<path id="XMLID_477_" class="st0" d="M181,159.6c0.7-0.3,1.3-0.8,1.8-1.3c0.5-0.6,0.9-1.2,1.1-1.9c0.2-0.7,0.4-1.5,0.4-2.2
		c0-0.8-0.1-1.5-0.4-2.3c-0.3-0.7-0.6-1.3-1.1-1.9c-0.5-0.5-1.1-1-1.8-1.3c-0.7-0.3-1.5-0.5-2.4-0.5c-0.9,0-1.7,0.2-2.4,0.5
		c-0.7,0.3-1.3,0.7-1.8,1.3c-0.5,0.5-0.9,1.2-1.1,1.9c-0.3,0.7-0.4,1.5-0.4,2.3c0,0.8,0.1,1.5,0.4,2.2c0.2,0.7,0.6,1.3,1,1.9
		c0.5,0.5,1,1,1.7,1.3c0.7,0.3,1.5,0.5,2.4,0.5C179.4,160.1,180.2,160,181,159.6z M176,157.5c-0.3-0.4-0.6-0.9-0.7-1.4
		s-0.3-1.2-0.3-1.9c0-0.6,0.1-1.2,0.2-1.8c0.2-0.5,0.4-1,0.7-1.4c0.3-0.4,0.7-0.7,1.1-0.9c0.4-0.2,0.9-0.3,1.5-0.3
		c0.6,0,1.1,0.1,1.5,0.3c0.5,0.2,0.8,0.5,1.2,0.9c0.3,0.4,0.6,0.9,0.7,1.4c0.2,0.5,0.3,1.1,0.3,1.8c0,0.6-0.1,1.2-0.2,1.8
		c-0.2,0.5-0.4,1-0.7,1.4c-0.3,0.4-0.7,0.7-1.1,1c-0.5,0.2-1,0.4-1.5,0.4c-0.5,0-1-0.1-1.4-0.3C176.7,158.1,176.3,157.8,176,157.5z"
		/>
	<path id="XMLID_480_" class="st0" d="M193.2,148.7c-0.7-0.3-1.5-0.5-2.4-0.5c-0.9,0-1.7,0.2-2.4,0.5c-0.7,0.3-1.3,0.7-1.8,1.3
		c-0.5,0.5-0.9,1.2-1.1,1.9c-0.3,0.7-0.4,1.5-0.4,2.3c0,0.8,0.1,1.5,0.4,2.2s0.6,1.3,1,1.9c0.5,0.5,1,1,1.7,1.3
		c0.7,0.3,1.5,0.5,2.4,0.5c1,0,1.8-0.2,2.5-0.5c0.7-0.3,1.3-0.8,1.8-1.3c0.5-0.6,0.9-1.2,1.1-1.9c0.2-0.7,0.4-1.5,0.4-2.2
		c0-0.8-0.1-1.5-0.4-2.3c-0.3-0.7-0.6-1.3-1.1-1.9C194.5,149.5,193.9,149,193.2,148.7z M194.2,155.9c-0.2,0.5-0.4,1-0.7,1.4
		c-0.3,0.4-0.7,0.7-1.1,1c-0.5,0.2-1,0.4-1.5,0.4c-0.5,0-1-0.1-1.4-0.3c-0.4-0.2-0.8-0.5-1.1-0.9s-0.6-0.9-0.7-1.4
		c-0.2-0.6-0.3-1.2-0.3-1.9c0-0.6,0.1-1.2,0.2-1.8c0.2-0.5,0.4-1,0.7-1.4c0.3-0.4,0.7-0.7,1.1-0.9c0.4-0.2,0.9-0.3,1.5-0.3
		c0.6,0,1.1,0.1,1.5,0.3c0.5,0.2,0.8,0.5,1.2,0.9c0.3,0.4,0.6,0.9,0.7,1.4c0.2,0.5,0.3,1.1,0.3,1.8
		C194.4,154.8,194.3,155.4,194.2,155.9z"/>
	<path id="XMLID_483_" class="st0" d="M209.1,159.1c-0.2,0.1-0.4,0.1-0.7,0.1l-0.1,0.1l-0.1,0.7l0,0c0.1,0,0.2,0,0.4,0
		c0.2,0,0.4,0,0.6,0c0.2,0,0.4,0,0.6,0c0.2,0,0.3,0,0.4,0h1.3c0.1,0,0.2,0,0.4,0c0.2,0,0.3,0,0.5,0s0.3,0,0.5,0c0.2,0,0.3,0,0.4,0
		l0-0.1l-0.1-0.7l-0.1-0.1c-0.2,0-0.3,0-0.5,0c-0.2,0-0.3-0.1-0.4-0.1s-0.3-0.2-0.4-0.4c-0.1-0.2-0.3-0.4-0.4-0.7
		c0-0.1-0.1-0.1-0.1-0.2c0-0.1-0.1-0.2-0.1-0.3c-0.1-0.1-0.1-0.3-0.2-0.5c-0.1-0.2-0.2-0.4-0.3-0.7l-3-8h-0.2l-1.2,0.5l-1.5,3.9
		c-0.4,1.1-0.8,2.1-1.1,2.8c-0.3,0.7-0.5,1.2-0.6,1.6c-0.2,0.4-0.3,0.6-0.3,0.8c-0.1,0.1-0.1,0.3-0.2,0.3c-0.2,0.2-0.3,0.4-0.4,0.6
		s-0.3,0.3-0.4,0.3c-0.2,0.1-0.3,0.1-0.5,0.2c-0.2,0-0.3,0-0.5,0l-0.1,0.1l0,0.7l0,0.1c0.1,0,0.2,0,0.4,0c0.2,0,0.3,0,0.5,0
		c0.2,0,0.3,0,0.5,0c0.2,0,0.3,0,0.4,0h1c0.1,0,0.2,0,0.4,0c0.2,0,0.4,0,0.6,0c0.2,0,0.4,0,0.6,0c0.2,0,0.3,0,0.4,0l0,0l-0.1-0.7
		l-0.1-0.1c-0.3,0-0.5-0.1-0.6-0.2c-0.1-0.1-0.2-0.3-0.2-0.6c0-0.2,0.1-0.4,0.2-0.8c0.1-0.4,0.3-0.8,0.5-1.3l0.4-0.8h3.1l0.4,0.8
		c0.2,0.5,0.4,0.9,0.4,1.3c0.1,0.3,0.1,0.6,0.1,0.8C209.3,158.8,209.2,159,209.1,159.1z M205.6,154.3l1.2-3.1l1.1,3.1H205.6z"/>
	<path id="XMLID_484_" class="st0" d="M218.5,152.6c0-0.7,0-1.2,0-1.7c0-0.5,0-0.8,0-1.1h0.2c0.4,0,0.8,0,1.1,0s0.5,0,0.7,0
		c0.2,0,0.3,0,0.4,0c0.1,0,0.1,0.1,0.2,0.1c0.1,0.1,0.2,0.2,0.3,0.3c0.1,0.1,0.1,0.3,0.2,0.5l0.1,0.1h0.8l-0.1-2.4l-0.1-0.2
		l-0.1-0.1c-0.1,0-0.3,0.1-0.6,0.1c-0.3,0-0.7,0.1-1,0.1c-0.4,0-0.7,0-1.1,0c-0.3,0-0.6,0-0.7,0h-2.2c-0.2,0-0.4,0-0.7,0
		c-0.3,0-0.7,0-1.1,0c-0.4,0-0.7,0-1-0.1c-0.3,0-0.5-0.1-0.6-0.1l-0.1,0.1l-0.1,0.2l-0.1,2.4h0.8l0.1-0.1c0-0.2,0.1-0.3,0.2-0.5
		c0.1-0.1,0.2-0.2,0.3-0.3c0,0,0.1-0.1,0.2-0.1c0.1,0,0.2,0,0.4-0.1c0.2,0,0.4,0,0.7,0s0.7,0,1.1,0h0.2c0,0.2,0,0.6,0,1.1
		c0,0.5,0,1.1,0,1.7v3.2c0,0.4,0,0.6,0,0.9c0,0.2,0,0.4,0,0.6c0,0.2,0,0.3,0,0.4s0,0.2,0,0.3c0,0.3-0.1,0.6-0.2,0.7
		c-0.1,0.1-0.2,0.2-0.3,0.3c-0.1,0.1-0.3,0.1-0.5,0.1c-0.2,0-0.4,0-0.6,0l-0.1,0.1l-0.1,0.7l0,0c0.1,0,0.2,0,0.4,0s0.4,0,0.6,0
		c0.2,0,0.4,0,0.6,0s0.3,0,0.4,0h1.7c0.1,0,0.2,0,0.4,0s0.4,0,0.6,0c0.2,0,0.4,0,0.6,0s0.3,0,0.4,0l0,0l-0.1-0.7l-0.1-0.1
		c-0.1,0-0.2,0-0.3,0s-0.2,0-0.3,0c-0.1,0-0.2,0-0.3-0.1c-0.1,0-0.2-0.1-0.2-0.1c-0.1-0.1-0.2-0.2-0.3-0.3c-0.1-0.1-0.2-0.4-0.2-0.7
		c0-0.1,0-0.3,0-0.4c0-0.1,0-0.3,0-0.4s0-0.4,0-0.7c0-0.3,0-0.6,0-1V152.6z"/>
	<path id="XMLID_485_" class="st0" d="M231.2,157.3c-0.1,0.3-0.1,0.5-0.2,0.7c-0.1,0.2-0.2,0.3-0.4,0.4c-0.2,0.1-0.5,0.1-0.9,0.1
		c-0.4,0-0.9,0-1.6,0h-0.8c-0.2,0-0.3-0.1-0.4-0.3c0-0.2,0-0.3,0-0.5c0-0.1,0-0.3,0-0.4c0-0.2,0-0.3,0-0.6c0-0.2,0-0.5,0-0.8v-1.4
		h0.2c0.5,0,1,0,1.5,0c0.4,0,0.7,0.1,0.8,0.2c0.1,0.1,0.2,0.4,0.2,0.7l0.1,0.1h0.7l0.1,0c0-0.3,0-0.5-0.1-0.8c0-0.2,0-0.5,0-0.8
		c0-0.3,0-0.5,0-0.7c0-0.2,0-0.4,0.1-0.7l-0.1,0h-0.7l-0.1,0.1c0,0.2-0.1,0.4-0.2,0.5c-0.1,0.1-0.2,0.1-0.3,0.2c-0.2,0-0.3,0-0.6,0
		s-0.5,0-0.7,0c-0.3,0-0.5,0-0.8,0v-0.6c0-0.4,0-0.8,0-1s0-0.5,0-0.7c0-0.2,0-0.3,0-0.5c0-0.1,0-0.3,0-0.5l0-0.2h1
		c0.7,0,1.2,0,1.5,0c0.4,0,0.6,0,0.8,0.1c0.2,0.1,0.3,0.2,0.3,0.3c0,0.1,0.1,0.3,0.1,0.5l0.1,0.1h0.8l0.1-2.3l-0.1-0.2
		c-0.1,0-0.2,0-0.5,0c-0.3,0-0.6,0-0.9,0c-0.3,0-0.7,0-1,0c-0.3,0-0.6,0-0.7,0h-2.9c-0.1,0-0.3,0-0.5,0c-0.2,0-0.4,0-0.6,0
		c-0.2,0-0.4,0-0.6,0c-0.2,0-0.3,0-0.4,0l0,0l0.1,0.7l0.1,0.1c0.2,0,0.4,0,0.5,0c0.2,0,0.3,0.1,0.4,0.2c0.1,0.1,0.2,0.2,0.3,0.3
		c0.1,0.1,0.1,0.4,0.2,0.7c0,0.1,0,0.3,0,0.4c0,0.1,0,0.3,0,0.5c0,0.2,0,0.4,0,0.7s0,0.6,0,1v2.9c0,0.4,0,0.6,0,0.9
		c0,0.2,0,0.4,0,0.6c0,0.2,0,0.3,0,0.4s0,0.2,0,0.3c0,0.3-0.1,0.6-0.2,0.7c-0.1,0.1-0.2,0.2-0.3,0.3c-0.1,0.1-0.2,0.1-0.4,0.1
		c-0.2,0-0.3,0-0.5,0l-0.1,0.1l-0.1,0.7l0,0c0.1,0,0.2,0,0.4,0c0.2,0,0.4,0,0.6,0c0.2,0,0.4,0,0.6,0c0.2,0,0.3,0,0.4,0h3.6
		c0.2,0,0.4,0,0.7,0s0.6,0,0.8,0s0.5,0,0.8,0c0.2,0,0.4,0,0.4,0l0.1-0.2l0.3-2.6L231.2,157.3L231.2,157.3z"/>
	<path id="XMLID_486_" class="st0" d="M241,157.5c-0.1,0.2-0.1,0.4-0.2,0.6c-0.1,0.1-0.2,0.2-0.3,0.3c-0.1,0.1-0.3,0.1-0.5,0.1
		c-0.2,0-0.5,0-0.9,0h-1.6c-0.3,0-0.4-0.1-0.4-0.4c0-0.2,0-0.4,0-0.5s0-0.3,0-0.5c0-0.2,0-0.4,0-0.7s0-0.7,0-1.1V153
		c0-0.4,0-0.8,0-1.1c0-0.3,0-0.5,0-0.7c0-0.2,0-0.4,0-0.5c0-0.1,0-0.2,0-0.4c0-0.5,0.2-0.8,0.4-1c0.1-0.1,0.2-0.1,0.3-0.1
		s0.3,0,0.6,0l0.1-0.1l0.1-0.7l0-0.1c-0.1,0-0.3,0.1-0.4,0.1c-0.2,0-0.4,0-0.6,0s-0.4,0-0.5,0c-0.2,0-0.3,0-0.4,0h-1
		c-0.1,0-0.2,0-0.4,0s-0.4,0-0.6,0c-0.2,0-0.4,0-0.6,0c-0.2,0-0.3,0-0.4-0.1l0,0.1l0.1,0.7l0.1,0.1c0.2,0,0.4,0,0.6,0
		c0.1,0,0.3,0.1,0.4,0.1c0.1,0.1,0.2,0.2,0.3,0.4c0.1,0.2,0.1,0.4,0.1,0.6c0,0.2,0,0.5,0,1c0,0.5,0,1.1,0,1.7v2.9c0,0.1,0,0.2,0,0.4
		c0,0.2,0,0.4,0,0.6c0,0.2,0,0.4,0,0.6c0,0.2,0,0.4,0,0.5c0,0.2-0.1,0.4-0.2,0.6c-0.1,0.2-0.2,0.3-0.3,0.4c-0.2,0.1-0.5,0.2-0.9,0.2
		l-0.1,0.1l-0.1,0.7l0,0.1c0.1,0,0.2-0.1,0.4-0.1c0.2,0,0.4,0,0.6,0c0.2,0,0.4,0,0.6,0s0.3,0,0.4,0h3.7c0.1,0,0.3,0,0.5,0
		c0.2,0,0.4,0,0.7,0c0.2,0,0.4,0,0.6,0c0.2,0,0.3,0,0.4,0l0.1-0.2l0.3-2.4L241,157.5L241,157.5z"/>
	<path id="XMLID_487_" class="st0" d="M246.3,153c0-0.4,0-0.8,0-1c0-0.3,0-0.5,0-0.7c0-0.2,0-0.4,0-0.5s0-0.3,0-0.5
		c0-0.3,0-0.6,0.1-0.7c0.1-0.1,0.2-0.2,0.3-0.3c0.1-0.1,0.3-0.1,0.4-0.1c0.2,0,0.3,0,0.5,0l0.1-0.1l0.1-0.7l0,0c-0.1,0-0.2,0-0.4,0
		s-0.4,0-0.6,0c-0.2,0-0.4,0-0.6,0c-0.2,0-0.3,0-0.4,0h-1c-0.1,0-0.2,0-0.4,0c-0.2,0-0.4,0-0.6,0c-0.2,0-0.4,0-0.6,0
		c-0.2,0-0.3,0-0.4,0l0,0l0.1,0.7l0.1,0.1c0.2,0,0.4,0,0.5,0c0.2,0,0.3,0.1,0.4,0.1c0.1,0.1,0.2,0.2,0.3,0.3
		c0.1,0.1,0.1,0.4,0.2,0.7c0,0.1,0,0.3,0,0.4s0,0.3,0,0.5c0,0.2,0,0.4,0,0.7s0,0.6,0,1v2.9c0,0.4,0,0.6,0,0.9c0,0.2,0,0.4,0,0.6
		c0,0.2,0,0.3,0,0.4s0,0.2,0,0.3c0,0.3-0.1,0.6-0.2,0.7c-0.1,0.1-0.2,0.2-0.3,0.3c-0.1,0.1-0.2,0.1-0.4,0.1c-0.2,0-0.3,0-0.5,0
		l-0.1,0.1l-0.1,0.7l0,0c0.1,0,0.2,0,0.4,0c0.2,0,0.4,0,0.6,0c0.2,0,0.4,0,0.6,0c0.2,0,0.3,0,0.4,0h1c0.1,0,0.2,0,0.4,0
		c0.2,0,0.4,0,0.6,0c0.2,0,0.4,0,0.6,0s0.3,0,0.4,0l0,0l-0.1-0.7l-0.1-0.1c-0.2,0-0.4,0-0.5,0c-0.2,0-0.3-0.1-0.4-0.1
		c-0.1-0.1-0.2-0.2-0.3-0.3c-0.1-0.1-0.1-0.4-0.2-0.7c0-0.1,0-0.3,0-0.4c0-0.1,0-0.3,0-0.4c0-0.2,0-0.4,0-0.7c0-0.3,0-0.6,0-1V153z"
		/>
	<path id="XMLID_488_" class="st0" d="M257.1,157.3c-0.1,0.3-0.1,0.5-0.2,0.7c-0.1,0.2-0.2,0.3-0.4,0.4c-0.2,0.1-0.5,0.1-0.9,0.1
		c-0.4,0-0.9,0-1.6,0h-0.8c-0.2,0-0.3-0.1-0.4-0.3c0-0.2,0-0.3,0-0.5c0-0.1,0-0.3,0-0.4c0-0.2,0-0.3,0-0.6c0-0.2,0-0.5,0-0.8v-1.4
		h0.2c0.5,0,1,0,1.5,0c0.4,0,0.7,0.1,0.8,0.2c0.1,0.1,0.2,0.4,0.2,0.7l0.1,0.1h0.7l0.1,0c0-0.3,0-0.5-0.1-0.8c0-0.2,0-0.5,0-0.8
		c0-0.3,0-0.5,0-0.7c0-0.2,0-0.4,0.1-0.7l-0.1,0h-0.7l-0.1,0.1c0,0.2-0.1,0.4-0.2,0.5c-0.1,0.1-0.2,0.1-0.3,0.2c-0.2,0-0.3,0-0.6,0
		s-0.5,0-0.7,0c-0.3,0-0.5,0-0.8,0v-0.6c0-0.4,0-0.8,0-1s0-0.5,0-0.7c0-0.2,0-0.3,0-0.5c0-0.1,0-0.3,0-0.5l0-0.2h1
		c0.7,0,1.2,0,1.5,0c0.4,0,0.6,0,0.8,0.1c0.2,0.1,0.3,0.2,0.3,0.3c0,0.1,0.1,0.3,0.1,0.5l0.1,0.1h0.8l0.1-2.3l-0.1-0.2
		c-0.1,0-0.2,0-0.5,0s-0.6,0-0.9,0c-0.3,0-0.7,0-1,0c-0.3,0-0.6,0-0.7,0h-2.9c-0.1,0-0.3,0-0.5,0c-0.2,0-0.4,0-0.6,0
		c-0.2,0-0.4,0-0.6,0c-0.2,0-0.3,0-0.4,0l0,0l0.1,0.7l0.1,0.1c0.2,0,0.4,0,0.5,0c0.2,0,0.3,0.1,0.4,0.2c0.1,0.1,0.2,0.2,0.3,0.3
		c0.1,0.1,0.1,0.4,0.2,0.7c0,0.1,0,0.3,0,0.4c0,0.1,0,0.3,0,0.5c0,0.2,0,0.4,0,0.7s0,0.6,0,1v2.9c0,0.4,0,0.6,0,0.9
		c0,0.2,0,0.4,0,0.6c0,0.2,0,0.3,0,0.4s0,0.2,0,0.3c0,0.3-0.1,0.6-0.2,0.7c-0.1,0.1-0.2,0.2-0.3,0.3c-0.1,0.1-0.2,0.1-0.4,0.1
		c-0.2,0-0.3,0-0.5,0l-0.1,0.1l-0.1,0.7l0,0c0.1,0,0.2,0,0.4,0c0.2,0,0.4,0,0.6,0c0.2,0,0.4,0,0.6,0c0.2,0,0.3,0,0.4,0h3.6
		c0.2,0,0.4,0,0.7,0s0.6,0,0.8,0s0.5,0,0.8,0c0.2,0,0.4,0,0.4,0l0.1-0.2l0.3-2.6L257.1,157.3L257.1,157.3z"/>
	<path id="XMLID_491_" class="st0" d="M270.6,159.2c-0.3,0-0.6-0.1-0.8-0.1c-0.2-0.1-0.5-0.2-0.7-0.3c-0.2-0.1-0.5-0.3-0.7-0.5
		c-0.2-0.2-0.5-0.5-0.8-0.8c-0.2-0.2-0.4-0.5-0.7-0.9c-0.3-0.4-0.6-0.9-1-1.5c0.8-0.4,1.5-1,1.9-1.6c0.4-0.6,0.6-1.3,0.6-2
		c0-1-0.4-1.8-1.1-2.3c-0.7-0.5-1.8-0.8-3.2-0.8c-0.3,0-0.6,0-0.9,0c-0.3,0-0.7,0-0.9,0H261c-0.2,0-0.4,0-0.7,0
		c-0.3,0-0.6,0-0.9-0.1l0,0.1l0.1,0.7l0.1,0.1c0.3,0,0.5,0,0.6,0c0.1,0,0.2,0.1,0.3,0.1c0.1,0.1,0.2,0.2,0.2,0.3s0.1,0.4,0.1,0.7
		c0,0.2,0,0.5,0.1,0.7c0,0.2,0,0.6,0,1v3.9c0,0.4,0,0.8,0,1.3c0,0.4,0,0.7,0,0.9c-0.1,0.5-0.2,0.9-0.5,1c-0.2,0.1-0.5,0.2-0.9,0.2
		l-0.1,0.1l-0.1,0.7l0,0.1c0.1,0,0.2-0.1,0.4-0.1c0.2,0,0.3,0,0.5,0c0.2,0,0.4,0,0.6,0c0.2,0,0.4,0,0.5,0h1c0.1,0,0.3,0,0.5,0
		c0.2,0,0.4,0,0.6,0c0.2,0,0.4,0,0.5,0c0.2,0,0.3,0,0.4,0.1l0-0.1l-0.1-0.7l-0.1-0.1c-0.3,0-0.5,0-0.7,0c-0.1,0-0.2-0.1-0.3-0.1
		c-0.2-0.1-0.3-0.5-0.4-1c0-0.1,0-0.3,0-0.4c0-0.2,0-0.3,0-0.5c0-0.2,0-0.5,0-0.7s0-0.6,0-1h1.1c0.1,0.2,0.2,0.3,0.3,0.5
		c0.1,0.2,0.3,0.4,0.4,0.7c0.1,0.2,0.3,0.5,0.4,0.7c0.1,0.2,0.3,0.4,0.4,0.6c0.6,0.8,1.1,1.4,1.6,1.8c0.5,0.3,1,0.5,1.7,0.5
		c0.2,0,0.4,0,0.7,0c0.3,0,0.7,0,1.2,0l0-0.1l0-0.7L270.6,159.2z M263.8,154h-0.5c-0.2,0-0.3,0-0.3-0.1c-0.1-0.1-0.1-0.3-0.1-0.5
		v-1.7c0-0.2,0-0.5,0-0.7c0-0.3,0-0.6,0.1-1.1h0.8c0.9,0,1.6,0.1,2.1,0.4c0.4,0.3,0.7,0.8,0.7,1.4c0,0.7-0.2,1.3-0.7,1.7
		C265.3,153.8,264.6,154,263.8,154z"/>
	<path id="XMLID_492_" class="st0" d="M48.1,156c-0.2-0.7-0.8-0.3-0.8-0.3s-2.4,1.3-5.8,5.7c-3.4,4.4-4,8.2-2.9,9.1
		c1.1,1,1.9,0,1.9,0s-0.5-0.5-0.5-2.2c0.8-6.4,7.9-11.7,7.9-11.7S48.1,156.2,48.1,156z"/>
	<path id="XMLID_495_" class="st0" d="M124.6,153.7h-82h-7.5H16.8c0,0-1.9,0-0.6,1c1.8,1.8,12.4,4.2,12.4,4.2
		c-0.5,2.3,0.4,2.5,0.4,2.5c5.3-6.3,13.5-6.6,13.5-6.6h13.2c-1.6,1.3-6.3,5.4-7.6,8.7c-1.6,4.1,0.8,6.8,3.3,7.2
		c2.4,0.4,4.1-1.4,4.2-2.5c0.1-1.1-1-1.4-1-1.4c-0.1,0.6-0.8,1.3-0.8,1.3s-3.6,2.2-4.3-3c0.1-1.1,0.4-2.2,0.9-3.1h15.1l-3.5,3.7
		l0.6,0.6l4.1-4.4h6.6l-3.5,3.7l0.6,0.6l4.1-4.4h6.6l-3.5,3.7l0.6,0.6l4.1-4.4h10c-0.8,1.9-0.7,3.7,0,4.8c1.7,2.5,4.5,2.1,5.8,1.1
		c1.1-0.7,0.9-2.1,0.8-2.6c0-0.1-0.1-0.1-0.2,0c-0.9,1.4-4.5,2.6-5.6-0.6c0,0,0,0,0,0c-0.2-1-0.1-1.9,0.2-2.7h19.7v0
		c0.6,0,2.4,0.2,1.8,2.2c-0.1,0.5-0.4,0.8-0.5,0.8c0,0,0,0,0,0c0.4,0.2,1.3,0.4,1.6-1.4c0-2.2-1.5-2.6-2.9-2.7v0H93.9
		c2.2-3.8,8-6.1,8-6.1h22.7c0,0,2.6-0.2,1.9,2.2c-0.1,0.5-0.4,0.8-0.5,0.8c0,0,0,0,0,0c0.4,0.2,1.3,0.4,1.6-1.4
		C127.7,154,126,153.7,124.6,153.7z M51,160.8c1.9-3.1,5.2-5.3,6.7-6.1h14.5l-5.8,6.1H51z M67.7,160.8l5.8-6.1h6.6l-5.8,6.1H67.7z
		 M75.5,160.8l5.8-6.1h6.6l-5.8,6.1H75.5z M100.5,154.7c-4,1.7-6.4,3.9-7.7,6.1h-9.5l5.8-6.1L100.5,154.7
		C100.5,154.7,100.5,154.7,100.5,154.7z"/>
	<rect id="XMLID_500_" x="285.5" y="147.3" class="st0" width="114.5" height="1"/>
	<path id="XMLID_504_" class="st0" d="M383.2,153.7h-18.3h-7.5h-82c-1.4,0-3.1,0.4-3.1,2.7c0.3,1.7,1.3,1.5,1.6,1.4c0,0,0,0,0,0
		c-0.1,0-0.4-0.3-0.5-0.8c-0.7-2.4,1.9-2.2,1.9-2.2h22.7c0,0,5.8,2.3,8,6.1h-19.2v0c-1.4,0-2.9,0.5-2.9,2.7c0.3,1.7,1.3,1.5,1.6,1.4
		c0,0,0,0,0,0c-0.1,0-0.4-0.3-0.5-0.8c-0.6-2,1.2-2.2,1.8-2.2v0h19.7c0.3,0.8,0.4,1.8,0.2,2.7c0,0,0,0,0,0c-1.1,3.1-4.7,2-5.6,0.6
		c0-0.1-0.2-0.1-0.2,0c-0.1,0.5-0.2,1.9,0.8,2.6c1.4,1,4.1,1.4,5.8-1.1c0.7-1.1,0.8-2.9,0-4.8h10l4.1,4.4l0.6-0.6l-3.5-3.7h6.6
		l4.1,4.4l0.6-0.6l-3.5-3.7h6.6l4.1,4.4l0.6-0.6l-3.5-3.7h15.1c0.5,1,0.8,2,0.9,3.1c-0.7,5.2-4.3,3-4.3,3s-0.7-0.7-0.8-1.3
		c0,0-1.1,0.3-1,1.4s1.8,3,4.2,2.5c2.4-0.4,4.8-3.1,3.3-7.2c-1.3-3.4-6-7.4-7.6-8.7h13.2c0,0,8.2,0.4,13.5,6.6c0,0,0.9-0.2,0.4-2.5
		c0,0,10.7-2.3,12.4-4.2C385.1,153.7,383.2,153.7,383.2,153.7z M307.2,160.8c-1.3-2.2-3.7-4.4-7.7-6.1c0,0,0,0,0,0h11.5l5.8,6.1
		H307.2z M317.9,160.8l-5.8-6.1h6.6l5.8,6.1H317.9z M325.7,160.8l-5.8-6.1h6.6l5.8,6.1H325.7z M349,160.8h-15.5l-5.8-6.1h14.5
		C343.8,155.5,347.1,157.6,349,160.8z"/>
	<path id="XMLID_508_" class="st0" d="M352.7,155.6c0,0-0.6-0.4-0.8,0.3c0,0.3,0.3,0.5,0.3,0.5s7.1,5.3,7.9,11.7
		c0,1.7-0.5,2.2-0.5,2.2s0.8,1,1.9,0c1.1-1,0.5-4.8-2.9-9.1C355.1,156.9,352.7,155.6,352.7,155.6z"/>
	<path id="XMLID_511_" class="st0" d="M162.8,68.4c-8.2,3.4-9.3,8.6-8,10.4c0,0,6.7-2.5,6.7,3.9v14.2c-4.9-0.4-5,2.6-5,2.6
		c4.9,0,5,6.9,5,6.9l0-2.3v12.4c0,0-0.1,1.7,2.5,2.8c2.6,1.1-1.8,1.4-1.8,1.4s-3,0-4.7-1.4c-1.7-1.4-1.9,3.1,2.7,8.2
		c0,0,10.3-4.6,14.6-3.8c4.3,0.8,6,1.3,6,1.3s2.7,0.9,0.4-1.7c-1.2-1.3-2.6-2.4-4.2-3.3V79.3c2.5,1,4.4,0.8,4.4,0.8l7-7.1
		c0,0,1.5-1.4-0.8-0.9c-5.8,1.4-9.6-4.5-9.6-4.5l-6.5,5.1C171.5,71.5,170.3,65.3,162.8,68.4z M176,78.8v40.8c-1.3-0.6-2.7-1-4.4-1.2
		V75.2C173.1,76.9,174.6,78.1,176,78.8z"/>
	<path id="XMLID_515_" class="st0" d="M243.3,138.4l7.9-9.3l-0.3-0.8c0,0-1,0.6-3.3,0.1V52.9c8.3,0.5,8.2,13.5,8.2,13.5v30.5
		c-4.9-0.3-5,2.6-5,2.6c4.9,0,5,6.9,5,6.9l0-0.3v15.4l-0.1,0.7c-5.4-0.9-6.4,1.6-6.4,1.6c-0.6,1.1-0.4,3.4,0.5,2.6
		c0.9-0.8,1.9-0.3,1.9-0.3s11.9,8.8,12.3,9.1c0.4,0.2,1.2,1.7,1.9,2.8c0.6,1.2,1.2,0.3,1.2,0.3l7.9-9.3l-0.3-0.8
		c0,0-1.1,0.6-3.4,0.1V44.5c1.6-1.9,3.5-3.3,5.3-4.3c4.9-2.8,6.3,0.7,6.3,0.7c0.9-0.2,1.2-1.4,1.2-1.4c1.4-3.6-2.6-7.3-11.6-3.9
		c-0.4,0.2-0.8,0.4-1.2,0.6v-9.3v-7.5V1c0,0,0-1.9-1-0.6c-1.8,1.8-4.2,12.4-4.2,12.4c-2.3-0.5-2.5,0.4-2.5,0.4
		c6.3,5.3,6.6,13.5,6.6,13.5v9.8c-7.7,4.7-12.7,16.9-12.7,16.9c-5.7-5.3-8.6-4.1-10-3.3v-6c1.6-1.8,3.4-3.2,5.1-4.2
		c4.9-2.8,6.3,0.7,6.3,0.7c0.9-0.2,1.2-1.4,1.2-1.4c1.4-3.6-2.6-7.3-11.6-3.9c-0.4,0.1-0.7,0.3-1.1,0.5v-9.2v-7.5V1c0,0,0-1.9-1-0.6
		c-1.8,1.8-4.2,12.4-4.2,12.4c-2.3-0.5-2.5,0.4-2.5,0.4c6.3,5.3,6.6,13.5,6.6,13.5v9.7c-7.8,4.6-12.9,17-12.9,17
		c-6.8-6.3-9.6-3.4-10.6-2.9s-1.9,3.2,0,2.2c8.9-0.1,8.8,13.5,8.8,13.5v30.5c-4.9-0.3-5,2.6-5,2.6c4.9,0,5,6.9,5,6.9l0-0.3v15.4
		l-0.1,0.7c-5.4-0.9-6.4,1.6-6.4,1.6c-0.6,1.1-0.4,3.4,0.5,2.6c0.9-0.8,1.9-0.3,1.9-0.3s11.9,8.8,12.3,9.1c0.4,0.2,1.2,1.7,1.9,2.8
		C242.7,139.2,243.3,138.4,243.3,138.4z M270.3,45.8v82.3c-1-0.3-2.1-0.8-3.4-1.5c-0.2-0.1-0.4-0.2-0.6-0.3c0-8.6,0-59.2,0-68
		C266.3,52.9,268,48.8,270.3,45.8z M242.5,58.3c0-5.4,1.7-9.6,4.1-12.7V51c-0.7,0.8-1.1,2.4,0,2v75.1c-1-0.3-2.2-0.8-3.5-1.5
		c-0.2-0.1-0.4-0.2-0.6-0.3C242.5,117.7,242.5,67,242.5,58.3z"/>
	<path id="XMLID_517_" class="st0" d="M205,99.5c4.9,0,5,6.9,5,6.9l0.1-9.5C205.1,96.5,205,99.5,205,99.5z"/>
	<path id="XMLID_520_" class="st0" d="M197.4,73.8c-1.6,0.9-4.4,2.1-8.5,2.6c-3.1,0.1,0,2.4,0,2.4s1.8,0.6,5.6,9.2l-0.7-0.3
		c0,0-4.1,2-4.1,7.1c0,0.6,0,1.3,0,2.1c-4.8-0.3-5,2.6-5,2.6c4.2,0,4.9,5.1,5,6.5c0,3.2,0,5.7,0,5.7s0.3,3.7,1.4,5.3
		c0,0-0.1,1.2-1.1,2c-1,0.8-4.7,4.3-2.7,4.1c2-0.2,5.8-1.3,8.7,0.8c2.9,2.1,7,3.5,7,3.5l7.9-6.2c1.1,2.6,3.4,5.8,8.3,6.4
		c0,0,6.4-5.1,6.5-9.3c0,0-6.2,0.3-6.2-6c0-4.1,0-19.4,0-29.9c0.1,0,0.2,0,0.3,0c0,0,2.1-2.6,1.9-2.9l-2.1-2.1c0-0.4,0-0.7,0-1.1
		c1.4-0.8,4.5-2.9,4.9-7.7c0,0-6.3,2.7-11.5,1.6c-5.1-1.1-7.2-3.2-7.2-3.2s-1.4-1-1.9,0.9c-0.3,1.1-2.7,3-4.6,4.4l0,0
		c0,0,0,0-0.1,0.1C198.2,73.3,197.4,73.8,197.4,73.8C197.4,73.8,197.4,73.8,197.4,73.8z M206,118.7c-4.7-2.4-5.8-3.3-5.8-3.3V91.5
		c2.6,0.8,6.1,1.7,9.9,2.3v3.1v20.6c0,0,0.1,0.9,0.4,2.3C209.2,119.8,207.6,119.6,206,118.7z M210.1,79.9v10.3c0,0-0.4,0.8-1.6,0.6
		c-1.2-0.2-12.9-2.5-14.9-7.3c-2.1-4.8-1.7-7.1,0.4-7.3c1.2-0.2,2.9-1.1,4.3-1.9C199.9,75.3,204.3,77.9,210.1,79.9z"/>
	<path id="XMLID_522_" class="st0" d="M293.8,99.6c4.9,0,5,6.9,5,6.9l0.1-9.5C293.9,96.6,293.8,99.6,293.8,99.6z"/>
	<path id="XMLID_525_" class="st0" d="M278.4,70c-3.5-2.4-2.3,0.4-2.3,0.4s1.2,3.7,5.1,6.2l-0.3-0.1c0,0-8.3,3.2-5.8,4.7
		c2.5,1.5,2.3,6.6,2.3,6.6v9.2c-4.9-0.4-5,2.6-5,2.6c4.9,0,5,6.9,5,6.9l0-2.6v9.1c0,0,0,2.4,1,3.6c0,0-2.6,2.2-3.2,4.7
		c-0.5,1.9,1.2,0.5,1.2,0.5s5.8-3.9,11.4-0.2v-0.1l13.1,6.2c0,0,1,1,7.3-4.6c6.4-5.6,10-3.1,10-3.1c0.9-0.3,0.4-2.5-4.5-3.6
		c-1.4-0.2-2.9-0.1-4.5,0v-7.9c0-5.1,0-16.9,0-16.9V80.7c8.2-1.4,10.7-4.4,10.7-4.4s0.4-0.8-4.6,0.2c-5,1.1-12.8-4-12.8-4
		s-6.5-4.7-7.4-6c-0.4-0.3-1.8,1.3-1.8,1.3S286.5,73.7,278.4,70z M298.1,76.3c0.2,0.2,0.5,0.4,0.8,0.6v10.9v9.2v15.9v4.5
		c-4.3-0.9-9.3-3.1-11.1-4v-4.9c0-5.1,0-16.9,0-16.9V78.7l-0.2-0.1c0.4,0,0.8,0.1,1.3,0.1C292.9,78.6,295.9,77.5,298.1,76.3z"/>
	<path id="XMLID_528_" class="st0" d="M131.7,128.4c0.1-1.1,0.1-1.7,0.1-1.7l0,0c0-0.1,0-0.1-0.1-0.2l6.8-5.3
		c1.1,2.6,3.4,5.8,8.3,6.4c0,0,6.4-5.1,6.5-9.3c0,0-6.2,0.3-6.2-6c0-4.1,0-19.4,0-29.9c0.1,0,0.2,0,0.3,0c0,0,2.1-2.6,1.9-2.9
		l-2.1-2.1c0-0.4,0-0.7,0-1.1c1.4-0.8,4.5-2.9,4.9-7.7c0,0-6.3,2.7-11.5,1.6c-5.1-1.1-7.2-3.2-7.2-3.2s-1.4-1-1.9,0.9
		c-0.3,1.1-2.7,3-4.6,4.4l0,0c0,0,0,0-0.1,0.1c-1.1,0.8-2,1.3-2,1.3s0,0,0,0c-1.6,0.9-4.4,2.1-8.5,2.6c-3.1,0.1,0,2.4,0,2.4
		s1.8,0.6,5.6,9.2l-0.7-0.3c0,0-4.1,2-4.1,7.1c0,0.6,0,1.3,0,2c-1.4-0.1-2.6,0.1-3.5,0.5c-0.9-0.7-2.2-1.6-3.8-2.5v-24
		c2.5-1,14.6-5.6,30.8-9c2.3-0.5,4.5-0.8,6.6-1c5,1,5.9,4.1,5.9,4.1c1.5-2-1.2-3.6-2.6-4.3c11.9-0.4,18.2,3.6,18.2,3.6
		s1.1,0.4,1.8-0.4c-3.5-3-8.5-4.7-16.6-4.9c-9.8-0.8-38.9,9.1-44.1,10.9v-3.9c11-2.7,21.5-7.4,28.6-9.6c14.9-4.7,29.2,0.8,29.2,0.8
		c-6.6-10.9-15.6-14.3-21.3-14.9c-5.8-0.6-3.2,1.3-2.3,2.5c0.9,1.2-0.3,1.6-0.3,1.6s-25.7,10.5-33.7,12.8c0-0.3,0.1-0.6,0.1-0.9
		c0.1-0.5,0.2-1,0.3-1.5c0.1-0.5,0.2-1.1,0.4-1.6c0.1-0.3,0.2-0.5,0.3-0.8c0.1-0.3,0.2-0.6,0.3-0.8c0.2-0.6,0.5-1.1,0.8-1.6l0.5-0.7
		c0.2-0.2,0.4-0.4,0.5-0.7c0.2-0.2,0.4-0.4,0.6-0.6l0.3-0.3l0.3-0.2c0.2-0.1,0.4-0.3,0.6-0.4c0.1-0.1,0.3-0.1,0.4-0.2
		c0.1-0.1,0.2-0.1,0.3-0.1c0.4-0.1,0.9-0.2,1.2-0.2c0.7,0.1,1.1,0.7,1.3,1.2c0.2,0.5,0.2,0.8,0.2,0.8c0,0,0,0.1,0.1,0.1
		c0.1,0,0.1,0,0.1-0.1c0,0,0-0.1,0.1-0.2c0-0.2,0.1-0.4,0-0.7c0-0.3-0.1-0.7-0.3-1.1c-0.2-0.4-0.7-0.8-1.2-1c-0.6-0.2-1.2-0.1-1.8,0
		c-0.1,0-0.3,0.1-0.5,0.1c-0.1,0-0.3,0.1-0.4,0.1c-0.3,0.1-0.6,0.3-0.9,0.5c-0.1,0.1-0.3,0.2-0.4,0.3l-0.4,0.3
		c-0.2,0.2-0.5,0.4-0.7,0.7c-0.2,0.3-0.4,0.5-0.6,0.8l-0.5,0.9c-0.3,0.6-0.6,1.2-0.8,1.8c-0.1,0.3-0.2,0.6-0.3,0.9
		c-0.1,0.3-0.2,0.6-0.3,0.9c-0.2,0.6-0.3,1.2-0.4,1.7c-0.1,0.5-0.2,1.1-0.2,1.5c-0.1,0.5-0.1,1-0.1,1.4c-1.1,0.2-2.3,0.5-3.7,0.8
		c0-1.2,0-2.1,0-2.7c0-7.8,8.5-13.1,8.5-13.1s1.6-0.8,0.7-1.3c-13,0.3-18.8,11.3-18.8,11.3c-3.4-3.6-4.9-1.6-4.9-1.6
		s0.8-0.5,2.4,3.8c0.5,1.2,0.7,3.2,0.9,5.3c-2.9,0.2-5.8,0.2-8.7-0.3v-22c0.8-0.6,1.7-1.2,2.5-1.8c0.2-0.1,0.3-0.2,0.5-0.3
		c1.3,0.4,2.4,1,3.2,1.7c0.9,0.8,1.3,1.7,1.4,2.5c0.1,0.8-0.2,1.6-0.5,2.2c-0.3,0.6-0.7,1.1-0.9,1.5c-0.2,0.4-0.4,0.6-0.4,0.6
		c0,0,0,0.1,0,0.1c0,0.1,0.1,0.1,0.1,0.1c0,0,0.1,0,0.2,0c0.1,0,0.3-0.1,0.5-0.2c0.4-0.2,1-0.5,1.7-1.1c0.6-0.6,1.3-1.7,1.3-3.2
		c0-1.4-0.8-2.9-2-3.9c-0.7-0.6-1.6-1.1-2.5-1.5c0.5-0.3,0.9-0.6,1.4-0.8c1.2-0.7,2.5-1.4,3.6-2c2.2-1.2,4.1-2.2,5.4-2.8
		c1.3-0.7,2.1-1,2.1-1c0.1,0,0.1-0.1,0.1-0.1c0-0.1-0.1-0.1-0.2-0.1c0,0-0.8,0.2-2.2,0.7c-0.7,0.2-1.6,0.6-2.5,1
		c-1,0.4-2,0.9-3.2,1.4c-1.9,0.9-3.9,2-6.1,3.4c-0.1,0-0.2,0-0.2-0.1c-1.7-0.3-3.5-0.2-5.2,0.2c-1.7,0.4-3.4,1.2-5,2.1
		c-1.5,1-3,2.2-4.3,3.5c-1.3,1.4-2.3,2.9-3.2,4.6c-0.5,1-0.9,2.1-1.2,3.1c-1.1-2.4-1.5-4.1-1.5-4.1c-0.8-0.7-0.8,1.2-0.8,1.2
		s0.5,2.5,1.8,5.6c-0.1,1.5,0,3,0.2,4.4c0.3,1.6,0.8,3,1.3,4.3c1.1,2.6,2.4,4.5,3.4,5.8c1,1.3,1.6,1.9,1.6,1.9l0,0l0,0c0,0,0,0,0,0
		c0,0,0.1,0,0.1,0.1c0,0,0,0,0,0c0,0,0.1,0,0.1,0c0,0,0,0,0,0c0,0,0.1,0,0.1,0c0,0,0,0,0,0c0,0,0,0,0,0c0,0,0,0,0.1-0.1c0,0,0,0,0,0
		c0,0,0,0,0,0c0,0,0-0.1,0.1-0.1c0,0,0,0,0,0c0,0,0-0.1,0-0.1c0,0,0,0,0,0c0,0,0,0,0-0.1c0,0,0-0.1,0-0.1c0,0,0,0,0,0l0,0
		c0,0-0.4-0.7-1.1-2c-0.3-0.7-0.7-1.5-1-2.4c-0.1-0.5-0.3-1-0.4-1.5c-0.2-0.5-0.2-1.1-0.3-1.7c0-0.3-0.1-0.6-0.1-0.9
		c0.8,1,1.7,2,2.7,2.9c2.4,1.9,5,3.3,7.7,4.3V80c-6.2-3.5-14.3-7.9-21-16C49,46.7,58.8,33.6,58.8,33.6s0.5-0.6,0.5-1
		c0,0,0-0.1,0-0.1c0-0.1,0-0.1-0.1-0.2c-0.1-0.1-0.1-0.1-0.3-0.1c-3.2,1.1-4.6,5.3-4.6,5.3s-7.9,18.8,17.1,36.4
		c-0.7-0.2-1.4-0.5-2.2-0.8c-1.6-0.6-3.4-1.4-5.4-2.2c-1-0.5-1.9-0.9-2.9-1.4c-1-0.5-2-1.1-2.9-1.7c-1-0.6-1.9-1.2-2.8-1.8
		c-0.9-0.7-1.7-1.3-2.5-2c-0.4-0.3-0.8-0.7-1.1-1.1c-0.2-0.2-0.3-0.4-0.5-0.5c-0.2-0.2-0.3-0.4-0.5-0.5c-0.3-0.3-0.6-0.7-0.9-1.1
		c-0.3-0.3-0.5-0.7-0.7-1.1c-0.2-0.3-0.4-0.7-0.6-1c-0.2-0.3-0.3-0.7-0.5-1c-0.3-0.6-0.4-1.2-0.6-1.7c-0.2-0.5-0.2-0.9-0.3-1.1
		c-0.1-0.3-0.1-0.4-0.1-0.4l0,0c0,0-0.1-0.1-0.1-0.1c-0.1,0-0.1,0-0.1,0.1c0,0,0,0.1,0,0.4c0,0.3,0,0.7,0,1.2
		c0.1,0.5,0.1,1.1,0.3,1.8c0.1,0.4,0.2,0.7,0.3,1.1c0.1,0.4,0.3,0.8,0.5,1.2c0.4,0.8,0.9,1.7,1.5,2.5c0.3,0.4,0.6,0.8,1,1.2
		c0.4,0.4,0.7,0.8,1.1,1.2c0.8,0.8,1.7,1.5,2.6,2.2c0.9,0.7,1.9,1.3,2.9,1.9c4,2.4,8.4,4,11.7,5c1.7,0.5,3.1,0.8,4.1,1.1
		c0.4,0.1,0.7,0.1,0.9,0.2c0.1,0.1,0.2,0.1,0.3,0.2c-1.8-0.2-6.5-0.3-8.8,4.6c-2.6,6.5,5.4,10.2,8.4,8c0,0,0.6-0.5,0.7-1.4
		c0,0-1.3,1-3.4,0.4c-2-0.6-5.5-2.6-3.6-7.6c1.9-4,6.8-3.6,8.9-2.8c0.2,0.1,0.5,0.3,0.7,0.4c0,0,0,0,0,0l0,0
		c0.4,0.2,0.9,0.5,1.3,0.7v59.5c-2.7-3.2-5.3-6.2-5.3-6.2s-0.1-0.1-0.3-0.3c-3.9-11,0-11.8,0-11.8c-0.5-0.8-1.1-0.6-1.1-0.6
		c-2.9,1.3-1.4,7.7-0.6,10.3c-2.5-3.1-6.8-8.7-8.9-13.8c-3.2-9.1,4.7-12.5,4.7-12.5s-5.2-0.9-6.8,5.2c-1.9,7.5,8.9,20.1,8.9,20.1
		s5.6,6.6,9.4,11.1v0h0c1.3,1.5,2.4,2.8,3,3.5c2.4,2.7,2.5,4.5,2.5,4.5H0v1h114.5v-1h-29V82.1c3.2,1.7,6,3.2,8.5,4.6
		c0,3.3-0.1,7-0.1,10.6l0-0.4c-4.9-0.4-5.1,2.6-5.1,2.6c4.9,0,5,6.9,5,6.9l0-0.2c0,4.9-0.1,8.6-0.1,9.2c0,2.1,1,2.4,1,2.4
		s1.2,0.8,0.8,1.4c-0.6,0.9-4.9-0.2-6.5-1.3c-1.5-1.1-1.9-0.4-1.9-0.4c-1.7,2.1,3.2,9.1,4.9,9.6c1.7,0.5,3.5-0.3,3.5-0.3
		c12.2-4.9,12.6-3.4,14-3c1.4,0.4,0.7-1.1,0.7-1.1c-0.1-0.2-0.2-0.5-0.3-0.7V95.9c1.7,1.1,2.6,1.7,3,2c-0.8,0.7-0.8,1.6-0.8,1.6
		l0.1,0.1c4.7,0,4.9,6.7,4.9,6.8l0.1,0c0,3,0,5.3,0,5.3s0.3,3.7,1.4,5.3c0,0-0.1,1.2-1.1,2c-1,0.8-4.7,4.3-2.7,4.1
		c2-0.2,5.8-1.3,8.7,0.8c2.6,1.9,6.2,3.2,6.9,3.5c0,0,0,0.1,0,0.1c0,0.2,0,0.5-0.1,0.8c0,0.3-0.1,0.6-0.2,1
		c-0.1,0.4-0.2,0.8-0.4,1.1c-0.2,0.4-0.4,0.8-0.6,1.1c-0.1,0.2-0.3,0.3-0.4,0.5c-0.2,0.2-0.3,0.3-0.5,0.4c-0.2,0.1-0.4,0.3-0.6,0.3
		c-0.2,0.1-0.5,0.2-0.7,0.3c-0.4,0.1-0.9,0.3-1.4,0.3c-0.5,0.1-0.9,0-1.4-0.1c-0.4-0.1-0.9-0.2-1.2-0.4c-0.4-0.2-0.7-0.4-0.9-0.7
		c-0.1-0.1-0.2-0.3-0.3-0.4c-0.1-0.1-0.2-0.3-0.3-0.4c-0.1-0.3-0.2-0.5-0.3-0.7c-0.1-0.2-0.1-0.4-0.1-0.5c0-0.1,0-0.2,0-0.2l0,0
		c0-0.1-0.1-0.1-0.2-0.1c-0.1,0-0.2,0.1-0.2,0.2c0,0,0,0.1,0,0.2c0,0.1,0,0.3,0,0.6c0,0.3,0.1,0.5,0.2,0.9c0.1,0.2,0.2,0.3,0.2,0.5
		c0.1,0.2,0.2,0.3,0.4,0.5c0.3,0.3,0.6,0.7,1.1,0.9c0.4,0.3,0.9,0.5,1.4,0.7c0.5,0.1,1.1,0.2,1.7,0.2c0.3,0,0.6,0,0.9-0.1
		c0.3,0,0.6-0.1,0.9-0.2c0.3-0.1,0.5-0.2,0.8-0.3c0.3-0.1,0.5-0.3,0.8-0.4c0.2-0.2,0.5-0.4,0.7-0.6c0.2-0.2,0.4-0.4,0.5-0.6
		c0,0.1-0.1,0.3-0.1,0.4c-0.5,1.7-1.4,3.7-2.7,5.5c-0.7,0.9-1.5,1.7-2.5,2.3c-1,0.6-2,1.1-3.2,1.4c-1.1,0.3-2.3,0.2-3.4,0
		c-1.1-0.2-2.2-0.6-3.1-1.2c-0.9-0.6-1.7-1.2-2.2-2c-0.6-0.8-0.9-1.6-1.1-2.4c-0.1-0.8-0.1-1.6,0-2.2c0.1-0.7,0.3-1.3,0.5-1.7
		c0.2-0.5,0.4-0.9,0.5-1.1c0.1-0.3,0.2-0.4,0.2-0.4l0,0c0,0,0-0.1,0-0.1c0,0-0.1-0.1-0.1,0c0,0-0.1,0.1-0.4,0.3
		c-0.2,0.2-0.6,0.5-0.9,0.9c-0.4,0.4-0.7,1.1-1,1.9c-0.2,0.8-0.4,1.8-0.2,2.8c0.2,1,0.6,2.1,1.3,3.1c0.7,0.9,1.6,1.8,2.7,2.4
		c1.1,0.6,2.3,1,3.6,1.2c0.6,0.1,1.3,0.1,2,0.1c0.3,0,0.7,0,1-0.1l0.5-0.1l0.1,0l0.1,0l0,0l0.1,0l0.2-0.1c1.3-0.3,2.5-0.9,3.5-1.6
		c1.1-0.7,2-1.6,2.7-2.6c1.5-2,2.3-4.1,2.8-5.9C131.4,131.1,131.6,129.5,131.7,128.4z M109,66.2v28c-1.1-0.7-2.3-1.4-3.6-2.1
		c0-8.8,0-18.2,0-25.1C106.6,66.7,107.8,66.4,109,66.2z M71.6,46.4c0.8-1.6,1.8-3.1,3-4.4c1.2-1.3,2.6-2.5,4.2-3.3
		c1.5-0.8,3.2-1.4,4.8-1.6c1.1-0.1,2.1-0.1,3.1,0c-1.2,0.8-2.3,1.6-3.5,2.5c-0.7,0.5-1.3,1.1-2,1.6l-1,0.9l-0.9,0.9
		c-0.6,0.6-1.2,1.3-1.8,1.9c-0.3,0.3-0.5,0.7-0.8,1c-0.3,0.3-0.5,0.7-0.8,1c-0.5,0.7-1,1.4-1.4,2.2c-0.2,0.4-0.4,0.7-0.6,1.1
		c-0.2,0.4-0.3,0.8-0.5,1.1L73.4,52l-0.2,0.6c-0.1,0.4-0.2,0.8-0.4,1.1c0,0.2-0.1,0.3-0.1,0.5c-1-1.4-1.8-2.8-2.5-4
		C70.5,48.9,71,47.6,71.6,46.4z M72.5,60.2c0.1,0.6,0.2,1.3,0.4,1.8c0.2,0.6,0.4,1.1,0.5,1.6c0.1,0.3,0.3,0.6,0.4,0.9
		c-0.8-1.1-1.6-2.6-2.4-4.4c-0.5-1.2-1-2.6-1.2-4.2c-0.2-0.9-0.3-1.8-0.3-2.8c0.6,1.4,1.4,2.9,2.4,4.3
		C72.3,58.5,72.4,59.4,72.5,60.2z M80.3,60.2c-2.8-1.1-4.9-2.9-6.6-4.9c0-0.1,0-0.2,0.1-0.3c0.1-0.4,0.1-0.7,0.2-1.1
		c0.1-0.4,0.2-0.7,0.4-1.1l0.2-0.5l0.2-0.5c0.2-0.4,0.3-0.7,0.5-1.1c0.2-0.4,0.4-0.7,0.6-1c0.4-0.7,0.9-1.4,1.3-2
		c0.5-0.7,1-1.3,1.5-1.9c0.6-0.6,1.1-1.3,1.7-1.8l0.9-0.9l0.9-0.8c0.5-0.5,1.1-0.9,1.6-1.4v20.4C82.6,61,81.4,60.6,80.3,60.2z
		 M79.2,138.9V112c2.3,1,4.6,5.9,4.6,5.9v26.9C83.1,143.6,81.2,141.3,79.2,138.9z M83.8,113.1c-1-1.9-3.5-2.6-4.6-2.8V78.8
		c0.3,0.2,0.6,0.3,0.8,0.5c1.3,0.7,2.5,1.3,3.7,2V113.1z M85.5,81V66.8c2.8,0.8,5.8,1.1,8.8,1.2c0,3.5-0.2,6.4-0.2,6.4
		s0,4.9-0.1,11.3C90.7,83.8,87.7,82.2,85.5,81z M109,120.7c-1-1.1-2.3-1.5-2.9-1.5c-0.9,0-0.7-1.6-0.7-1.6s0-11.5,0-24.5
		c1.5,0.8,2.6,1.5,3.6,2.1V120.7z M121.4,76.2c1.2-0.2,2.9-1.1,4.3-1.9c1.7,1,6.1,3.6,11.9,5.6v10.3c0,0-0.4,0.8-1.6,0.6
		c-1.2-0.2-12.9-2.5-14.9-7.3C118.9,78.7,119.2,76.5,121.4,76.2z M127.6,91.5c2.6,0.8,6.1,1.7,9.9,2.3v3.1c-4.8-0.3-4.9,2.6-4.9,2.6
		c3.9,0,4.7,4.3,4.9,6.1v11.9c0,0,0.1,0.9,0.4,2.3c-1.3,0.1-2.9-0.1-4.6-1c-4.7-2.4-5.8-3.3-5.8-3.3V91.5z"/>
	<path id="XMLID_540_" class="st0" d="M65.1,75.5c0,0-0.2-0.7-1.7-0.7c-5.9,0.3-10.1,4.3-10,7c0.2,2.2,1.8,1.6,1.8,1.6
		s-1.1-0.6,0.3-3.1C58.8,75.1,65.1,75.5,65.1,75.5z"/>
</g>
</svg>
